<svg width="268" height="240" fill="none"  xmlns="http://www.w3.org/2000/svg" xmlns:xlink="http://www.w3.org/1999/xlink" viewBox="0 0 350 330">
  <g id="prize-from">
    <g id="airship">
      <path d="M175.44,249.28h48.36a13.27,13.27,0,0,0,13-10.65l3.74-18.32H172.36v25.89A3.09,3.09,0,0,0,175.44,249.28Z" fill="none" stroke="#fff" stroke-linecap="round" stroke-linejoin="round" stroke-width="2"/>
      <path d="M235.79,241.69h-9.22a8.31,8.31,0,0,1-8.28-8.31V220.31" fill="none" stroke="#fff" stroke-linecap="round" stroke-miterlimit="10" stroke-width="2"/>
      <path d="M205,227.08c43.38,0,74.86-15.55,74.86-37s-31.48-37-74.86-37c-27.94,0-55.36,13.53-73.46,24.87a14.3,14.3,0,0,0,0,24.21c18.09,11.33,45.52,24.87,73.46,24.87" fill="#068e4d"/>
      <path d="M205,227.08c43.38,0,74.86-15.55,74.86-37s-31.48-37-74.86-37c-27.94,0-55.36,13.53-73.46,24.87a14.3,14.3,0,0,0,0,24.21C149.63,213.54,177.06,227.08,205,227.08Z" fill="none" stroke="#fff" stroke-width="2"/>
      <path d="M205,176.09c-28.23,0-56.07,5.76-72.81,10-3.95,1-6,2.66-6.08,4.34A12.93,12.93,0,0,1,132.18,179c16.74-10.5,44.58-24.68,72.81-24.68,44.81,0,73.64,16,73.64,35.75,0,0.12,0,.24,0,0.37-0.37-7.95-29.1-14.37-73.63-14.37" fill="#36e69a"/>
      <path d="M132.18,195.12c16.74,4.27,44.58,10,72.81,10,44.14,0,72.75-6.32,73.6-14.18-0.86,19.34-29.45,34.86-73.6,34.86-28.23,0-56.07-14.19-72.81-24.68a12.88,12.88,0,0,1-6-10.18c0.26,1.61,2.26,3.18,6,4.14" fill="#068e4d"/>
      <path d="M132.18,186.12c16.74-4.27,44.58-10,72.81-10,44.53,0,73.26,6.43,73.61,14.38,0,0.17,0,.34,0,0.51-0.85,7.86-29.45,14.17-73.6,14.17-28.23,0-56.07-5.76-72.81-10-3.79-1-5.79-2.53-6-4.13l0-.51c0.13-1.69,2.15-3.36,6.1-4.37" fill="#25b774"/>
      <path d="M123.23,173.34h9.16a3.29,3.29,0,0,1,3.29,3.3v5.71a3.29,3.29,0,0,1-3.29,3.3H115.57a1.32,1.32,0,0,1-1.32-1.32v-2a9,9,0,0,1,9-9" fill="#068e4d"/>
      <path d="M123.23,173.34h9.16a3.29,3.29,0,0,1,3.29,3.3v5.71a3.29,3.29,0,0,1-3.29,3.3H115.57a1.32,1.32,0,0,1-1.32-1.32v-2A9,9,0,0,1,123.23,173.34Z" fill="none" stroke="#fff" stroke-linecap="round" stroke-linejoin="round" stroke-width="2"/>
      <path d="M123.23,207.39h9.16a3.29,3.29,0,0,0,3.29-3.3v-5.71a3.29,3.29,0,0,0-3.29-3.3H115.57a1.32,1.32,0,0,0-1.32,1.32v2a9,9,0,0,0,9,9" fill="#068e4d"/>
      <path d="M123.23,207.39h9.16a3.29,3.29,0,0,0,3.29-3.3v-5.71a3.29,3.29,0,0,0-3.29-3.3H115.57a1.32,1.32,0,0,0-1.32,1.32v2A9,9,0,0,0,123.23,207.39Z" fill="none" stroke="#fff" stroke-linecap="round" stroke-linejoin="round" stroke-width="2"/>
      <path d="M123.23,173.34h9.16a3.29,3.29,0,0,1,3.29,3.3v5.71a3.29,3.29,0,0,1-3.29,3.3H115.57a1.32,1.32,0,0,1-1.32-1.32v-2a9,9,0,0,1,9-9" fill="#068e4d"/>
      <path d="M123.23,173.34h9.16a3.29,3.29,0,0,1,3.29,3.3v5.71a3.29,3.29,0,0,1-3.29,3.3H115.57a1.32,1.32,0,0,1-1.32-1.32v-2A9,9,0,0,1,123.23,173.34Z" fill="none" stroke="#fff" stroke-linecap="round" stroke-linejoin="round" stroke-width="2"/>
      <path d="M123.23,207.39h9.16a3.29,3.29,0,0,0,3.29-3.3v-5.71a3.29,3.29,0,0,0-3.29-3.3H115.57a1.32,1.32,0,0,0-1.32,1.32v2a9,9,0,0,0,9,9" fill="#068e4d"/>
      <path d="M123.23,207.39h9.16a3.29,3.29,0,0,0,3.29-3.3v-5.71a3.29,3.29,0,0,0-3.29-3.3H115.57a1.32,1.32,0,0,0-1.32,1.32v2A9,9,0,0,0,123.23,207.39Z" fill="none" stroke="#fff" stroke-linecap="round" stroke-linejoin="round" stroke-width="2"/>

      <g id="window">
        <path d="M 204.25 231.88 L 202.2 231.88 C 201.288 231.885 200.416 232.251 199.773 232.898 C 199.13 233.544 198.77 234.418 198.77 235.33 L 198.77 238.25 C 198.77 239.162 199.13 240.036 199.773 240.682 C 200.416 241.329 201.288 241.695 202.2 241.7 L 204.25 241.7 C 205.161 241.695 206.033 241.329 206.676 240.682 C 207.319 240.036 207.68 239.162 207.68 238.25 L 207.68 235.33 C 207.681 234.878 207.593 234.431 207.422 234.013 C 207.25 233.595 206.998 233.215 206.679 232.895 C 206.361 232.574 205.982 232.32 205.565 232.146 C 205.148 231.972 204.701 231.881 204.25 231.88 Z" fill="none" stroke="#fff" stroke-linecap="round" stroke-linejoin="round" stroke-width="2" style="transform-origin: center;transform-box: fill-box">
          <animate begin="2s" fill="freeze" id="fromWindowAnimation" attributeName="d" dur="0.25s" to="M 232.531 211 L 227.469 211 C 225.218 211.013 223.064 211.916 221.478 213.512 C 219.891 215.109 219 217.268 219 219.519 L 219 226.728 C 219 228.979 219.891 231.138 221.478 232.734 C 223.064 234.331 225.218 235.234 227.469 235.247 L 232.531 235.247 C 234.782 235.234 236.936 234.331 238.522 232.734 C 240.109 231.138 241 228.979 241 226.728 L 241 219.519 C 241.003 218.403 240.787 217.298 240.363 216.266 C 239.939 215.234 239.316 214.296 238.53 213.505 C 237.743 212.714 236.809 212.086 235.779 211.656 C 234.75 211.226 233.646 211.003 232.531 211 Z" />
          <animate begin="fromWindowAnimation.end - 0.05s" attributeName="opacity" values="1; 0;" keyTimes="0; 1" dur="0.05s" fill="freeze" />
        </path>
        <path d="M185.64,231.88h-2.05a3.45,3.45,0,0,0-3.43,3.45v2.92a3.45,3.45,0,0,0,3.43,3.45h2.05a3.45,3.45,0,0,0,3.43-3.45v-2.92A3.45,3.45,0,0,0,185.64,231.88Z" fill="none" stroke="#fff" stroke-linecap="round" stroke-linejoin="round" stroke-width="2"/>
      </g>

      <animateTransform attributeName="transform"
                        type="translate"
                        values="0, 0; -2, 5; 0, 0"
                        keyTimes="0; 0.5; 1"
                        keySplines="0 0 0.59 1; 0.42 0 1 1"
                        calcMode="spline"
                        dur="2s"
                        end="hidePrizeFromAnimation.end"
                        repeatCount="indefinite"/>
      <animateTransform attributeName="transform"
                        type="scale"
                        values="1  1; 1 0.96; 1 1"
                        keyTimes="0; 0.5; 1"
                        keySplines="0 0 0.59 1; 0.42 0 1 1"
                        calcMode="spline"
                        dur="2s"
                        additive="sum"
                        repeatCount="indefinite"/>
      <animateTransform attributeName="transform"
                        type="skewX"
                        values="0; 1; 0"
                        keyTimes="0; 0.5; 1"
                        keySplines="0 0 0.59 1; 0.42 0 1 1"
                        calcMode="spline"
                        dur="2s"
                        additive="sum"
                        repeatCount="indefinite"/>
    </g>

    <g id="airship__wind">
      <line x1="106.25" y1="179.49" x2="84.05" y2="179.49" fill="none" stroke="#fff" stroke-linecap="round" stroke-miterlimit="10" stroke-width="2">
        <animate attributeName="x2"
                 values="84.05; 80.05; 84.05"
                 keyTimes="0; 0.5; 1"
                 keySplines="0 0 0.59 1; 0.42 0 1 1"
                 calcMode="spline"
                 dur="0.4s"
                 begin="0.05s"
                 additive="replace"
                 end="hidePrizeFromAnimation.end"
                 repeatCount="indefinite"/>
      </line>
      <line x1="106.25" y1="201.23" x2="84.05" y2="201.23" fill="none" stroke="#fff" stroke-linecap="round" stroke-miterlimit="10" stroke-width="2">
        <animate attributeName="x2"
                 values="84.05; 75.05; 84.05"
                 keyTimes="0; 0.5; 1"
                 keySplines="0 0 0.59 1; 0.42 0 1 1"
                 calcMode="spline"
                 dur="0.4s"
                 begin="0.1s"
                 additive="replace"
                 end="hidePrizeFromAnimation.end"
                 repeatCount="indefinite"/>
      </line>
      <line x1="106.25" y1="190.98" x2="68.77" y2="190.98" fill="none" stroke="#fff" stroke-linecap="round" stroke-miterlimit="10" stroke-width="2">
        <animate attributeName="x2"
                 values="68.77; 62.05; 68.77"
                 keyTimes="0; 0.5; 1"
                 keySplines="0 0 0.59 1; 0.42 0 1 1"
                 calcMode="spline"
                 dur="0.4s"
                 additive="replace"
                 end="hidePrizeFromAnimation.end"
                 repeatCount="indefinite"/>
      </line>

      <animateTransform attributeName="transform"
                        type="translate"
                        values="0, 0; 3, -2; 0, 0"
                        keyTimes="0; 0.5; 1"
                        keySplines="0 0 0.59 1; 0.42 0 1 1"
                        calcMode="spline"
                        dur="2s"
                        end="hidePrizeFromAnimation.end"
                        repeatCount="indefinite"/>
    </g>

    <g id="cloud">
      <g>
        <line x1="68.95" y1="107.8" x2="131.86" y2="107.8" fill="none" stroke="#fff" stroke-linecap="round" stroke-miterlimit="10" stroke-width="2"/>
        <path d="M41.77,97.54H77.06a12.4,12.4,0,1,1,24.8,0h17.93" fill="none" stroke="#fff" stroke-linecap="round" stroke-miterlimit="10" stroke-width="2"/>

        <animateTransform attributeName="transform"
                          type="translate"
                          end="hidePrizeFromAnimation.end"
                          values="220, 0; -40, 0; 220,0"
                          keyTimes="0; 0.6; 1"
                          dur="8s"
                          calcMode="linear"
                          repeatCount="indefinite" />
        <animate attributeName="opacity"
                 end="hidePrizeFromAnimation.end"
                 values="0; 1; 1; 0; 0;"
                 keyTimes="0; 0.1; 0.5; 0.6; 1"
                 dur="8s"
                 calcMode="linear"
                 repeatCount="indefinite" />
      </g>

      <g opacity="0">
        <line x1="258.96" y1="93.19" x2="298.74" y2="93.19" fill="none" stroke="#fff" stroke-linecap="round" stroke-miterlimit="10" stroke-width="2"/>
        <path d="M278.75,82.91H251.39a12.4,12.4,0,1,0-24.8,0H208.65" fill="none" stroke="#fff" stroke-linecap="round" stroke-miterlimit="10" stroke-width="2"/>
        <line x1="287.01" y1="82.91" x2="309.21" y2="82.91" fill="none" stroke="#fff" stroke-linecap="round" stroke-miterlimit="10" stroke-width="2"/>

        <animateTransform attributeName="transform"
                          end="hidePrizeFromAnimation.end"
                          type="translate"
                          values="40, 0; -220, 0; 40,0"
                          keyTimes="0; 0.7; 1"
                          dur="8s"
                          begin="4s"
                          calcMode="linear"
                          repeatCount="indefinite" />
        <animate attributeName="opacity"
                 end="hidePrizeFromAnimation.end"
                 values="0; 1; 1; 0; 0;"
                 keyTimes="0; 0.1; 0.6; 0.7; 1"
                 dur="8s"
                 begin="4s"
                 calcMode="linear"
                 repeatCount="indefinite" />
      </g>
    </g>

    <animate id="hidePrizeFromAnimation" begin="fromWindowAnimation.end" attributeName="opacity" values="1; 0;" keyTimes="0; 1" dur="0.2s" fill="freeze" />
  </g>

  <g id="prize-to">
    <defs>
      <clipPath id="windowClipPatch">
        <path d="M275,225.43H257.87a17.6,17.6,0,0,1-17.52-17.58V170a17.6,17.6,0,0,1,17.52-17.58H275A17.6,17.6,0,0,1,292.51,170v37.83A17.61,17.61,0,0,1,275,225.43Z"/>
      </clipPath>
    </defs>

    <g opacity="0">
      <path d="M91.14,327.79a2.2,2.2,0,0,1-2-2.36l13.66-193.17c1.1-15.49-4.8-21.92-8.75-24.47a1.35,1.35,0,0,1,.53-2.45C103,104,122.18,104,120,134.19L106.43,326.67a2.2,2.2,0,0,1-2.35,2Z" fill="#fff"/>
      <path d="M124.5,328.17a2.2,2.2,0,0,1-2.17-2.23l2.24-193.63c0.19-15.53-6.07-21.61-10.16-23.91a1.35,1.35,0,0,1,.39-2.47c8.36-1.9,27.49-3,27.15,27.28l-2.25,192.93a2.2,2.2,0,0,1-2.22,2.18Z" fill="#fff"/>

      <animate begin="showChairAnimation.begin + 0.08" attributeName="opacity" values="0; 0; 1;" keyTimes="0; 0.5; 1" dur="0.4s" fill="freeze" />
      <animateTransform begin="showChairAnimation.begin + 0.08" attributeName="transform" type="translate" values="-100; 0;" keyTimes="0; 1" dur="0.4s" />

    </g>

    <g id="window">
      <path opacity="0" d="M 233.615 234 L 226.39 234 C 224.428 233.993 222.55 233.381 221.165 232.299 C 219.781 231.216 219.002 229.75 219 228.221 L 219 215.779 C 219.002 214.25 219.781 212.784 221.165 211.701 C 222.55 210.619 224.428 210.007 226.39 210 L 233.615 210 C 235.575 210.008 237.453 210.62 238.836 211.703 C 240.22 212.785 240.998 214.251 241 215.779 L 241 228.214 C 240.999 229.744 240.222 231.21 238.838 232.294 C 237.454 233.378 235.576 233.991 233.615 234 Z" fill="none" stroke="#fff" stroke-width="2">
        <animate begin="fromWindowAnimation.end - 0.05s" attributeName="opacity" values="0; 1;" keyTimes="0; 1" dur="0.05s" fill="freeze" />
        <animate id="toWindowAnimation" attributeName="d" dur="0.25s" fill="freeze" begin="fromWindowAnimation.end" to="M 275 225.43 L 257.87 225.43 C 253.219 225.409 248.766 223.548 245.483 220.254 C 242.2 216.96 240.355 212.501 240.35 207.85 L 240.35 170 C 240.355 165.35 242.2 160.89 245.483 157.596 C 248.766 154.302 253.219 152.441 257.87 152.42 L 275 152.42 C 279.648 152.444 284.099 154.306 287.379 157.6 C 290.66 160.893 292.504 165.351 292.51 170 L 292.51 207.83 C 292.507 212.482 290.664 216.943 287.384 220.241 C 284.103 223.538 279.651 225.404 275 225.43 Z" />
      </path>
    </g>

    <g clip-path="url(#windowClipPatch)">
      <g transform="translate(220 160)" opacity="0">

        <g transform="translate(-100 0)" >
          <path d="M41.77,97.54H77.06a12.4,12.4,0,1,1,24.8,0h17.93" transform="translate(-40.77 -69.46)" fill="none" stroke="#fff" stroke-linecap="round" stroke-miterlimit="10" stroke-width="2"/>
          <line x1="28.18" y1="38.34" x2="91.09" y2="38.34" fill="none" stroke="#fff" stroke-linecap="round" stroke-miterlimit="10" stroke-width="2"/>

          <animateTransform begin="toWindowAnimation.end - 0.1s" attributeName="transform"
                            type="translate"
                            values="220, 0; -100, 0; -100, 0"
                            keyTimes="0; 0.6; 1"
                            dur="8s"
                            calcMode="linear"
                            repeatCount="indefinite" />
        </g>

        <g>
          <line x1="218.19" y1="23.72" x2="257.97" y2="23.72" fill="none" stroke="#fff" stroke-linecap="round" stroke-miterlimit="10" stroke-width="2"/>
          <path d="M278.75,82.91H251.39a12.4,12.4,0,1,0-24.8,0H208.65" transform="translate(-40.77 -69.46)" fill="none" stroke="#fff" stroke-linecap="round" stroke-miterlimit="10" stroke-width="2"/>
          <line x1="246.24" y1="13.45" x2="268.43" y2="13.45" fill="none" stroke="#fff" stroke-linecap="round" stroke-miterlimit="10" stroke-width="2"/>

          <animateTransform begin="toWindowAnimation.end - 4.1s" attributeName="transform"
                            type="translate"
                            values="40, 0; -300, 0; -300, 0"
                            keyTimes="0; 0.7; 1"
                            dur="8s"
                            calcMode="linear"
                            repeatCount="indefinite" />
        </g>

        <animate begin="toWindowAnimation.end" attributeName="opacity"
                 values="0; 1;"
                 keyTimes="0; 1"
                 dur="0.01s"
                 calcMode="linear"
                 fill="freeze"
        />
      </g>
    </g>

    <g id="chair" opacity="0">
      <path d="M257.5,259.82H196.76V245.63h55.09a9.92,9.92,0,0,1,9.9,9.93,4.26,4.26,0,0,1-4.25,4.25" fill="#a67ee5"/>
      <path d="M257.5,259.82H196.76V245.63h55.09a9.92,9.92,0,0,1,9.9,9.93A4.26,4.26,0,0,1,257.5,259.82Z" fill="none" stroke="#fff" stroke-miterlimit="10" stroke-width="2"/>
      <polygon points="185.47 328.31 171.5 328.31 165.19 286.72 179.16 286.72 185.47 328.31" fill="#a67ee5"/>
      <polygon points="185.47 328.31 171.5 328.31 165.19 286.72 179.16 286.72 185.47 328.31" fill="none" stroke="#fff" stroke-miterlimit="10" stroke-width="2"/>
      <polygon points="235.03 328.31 221.06 328.31 214.76 286.72 228.72 286.72 235.03 328.31" fill="#a67ee5"/>
      <polygon points="235.03 328.31 221.06 328.31 214.76 286.72 228.72 286.72 235.03 328.31" fill="none" stroke="#fff" stroke-miterlimit="10" stroke-width="2"/>
      <path d="M281.33,272.45H225.44a5.59,5.59,0,0,1-5.53-4.77l-10.86-72.24a17.71,17.71,0,0,0-12.49-31.31H141.48L141.16,267l15.77,23.35,47.19,8.39a12.3,12.3,0,0,0,4.22.75h73a13.53,13.53,0,0,0,0-27.06" fill="#a67ee5"/>
      <path d="M281.33,272.45H225.44a5.59,5.59,0,0,1-5.53-4.77l-10.86-72.24a17.71,17.71,0,0,0-12.49-31.31H141.48L141.16,267l15.77,23.35,47.19,8.39a12.3,12.3,0,0,0,4.22.75h73A13.53,13.53,0,0,0,281.33,272.45Z" fill="none" stroke="#fff" stroke-miterlimit="10" stroke-width="2"/>
      <path d="M162.42,267.69l-10.86-72.24a17.71,17.71,0,1,0-29-13.61,18,18,0,0,0,.79,5.25L138.65,289a12.36,12.36,0,0,0,12.21,10.54h73a13.53,13.53,0,0,0,0-27.05H167.95a5.62,5.62,0,0,1-5.53-4.78" fill="#a67ee5"/>
      <path d="M162.42,267.69l-10.86-72.24a17.71,17.71,0,1,0-29-13.61,18,18,0,0,0,.79,5.25L138.65,289a12.36,12.36,0,0,0,12.21,10.54h73a13.53,13.53,0,0,0,0-27.05H167.95A5.62,5.62,0,0,1,162.42,267.69Z" fill="none" stroke="#fff" stroke-miterlimit="10" stroke-width="2"/>
      <path d="M206.26,259.82h-72l-2.13-14.19H200.6a9.92,9.92,0,0,1,9.9,9.93,4.26,4.26,0,0,1-4.25,4.25" fill="#a67ee5"/>
      <path d="M206.26,259.82h-72l-2.13-14.19H200.6a9.92,9.92,0,0,1,9.9,9.93A4.26,4.26,0,0,1,206.26,259.82Z" fill="none" stroke="#fff" stroke-miterlimit="10" stroke-width="2"/>
      <line x1="151.57" y1="195.44" x2="209.05" y2="195.44" fill="none" stroke="#fff" stroke-linecap="round" stroke-miterlimit="10" stroke-width="2"/>

      <animate id="showChairAnimation" begin="toWindowAnimation.end - 0.05s" attributeName="opacity" values="0; 1;" keyTimes="0; 1" dur="0.2s" fill="freeze" />
      <animateTransform begin="showChairAnimation.begin" attributeName="transform" type="translate" values="-200; 0;" keyTimes="0; 1" dur="0.3s" />
    </g>

    <g id="plant" opacity="0">
      <path d="M79.18,194A131,131,0,0,1,94.77,220.9a255,255,0,0,1-20.08-23.55,259,259,0,0,1-17.07-25.88A131.72,131.72,0,0,1,79.18,194" fill="#36e69a"/>
      <path d="M80.94,214.39a127.19,127.19,0,0,1,22.8,20.49A242.09,242.09,0,0,1,77.9,219.17a235.86,235.86,0,0,1-23.42-18.7,119.82,119.82,0,0,1,26.46,13.92" fill="#36e69a"/>
      <path d="M93.66,205.48a258.38,258.38,0,0,0,10.08,29.39,125.63,125.63,0,0,0-4.5-30.52,135.9,135.9,0,0,0-12.06-29.44,260.33,260.33,0,0,0,6.47,30.57" fill="#36e69a"/>
      <path d="M107.32,213.52a250.14,250.14,0,0,0,2.06,30.67,119.93,119.93,0,0,0,3.76-30.05,131.24,131.24,0,0,0-4-31.36,238.1,238.1,0,0,0-1.87,30.74" fill="#25b774"/>
      <path d="M83.08,229.56a121.93,121.93,0,0,1,26.29,14.64A225.91,225.91,0,0,1,81.21,235a228.11,228.11,0,0,1-26.37-12.69,113.61,113.61,0,0,1,28.25,7.29" fill="#25b774"/>
      <path d="M88.06,243.83A118.11,118.11,0,0,1,115.62,255a211,211,0,0,1-28.78-5.6,220.87,220.87,0,0,1-27.42-9.33,114,114,0,0,1,28.65,3.73" fill="#25b774"/>
      <path d="M118.71,224.79a238,238,0,0,0-3.1,30.25,117.11,117.11,0,0,0,8.82-28.54,127.44,127.44,0,0,0,1.42-31.19,213.92,213.92,0,0,0-7.15,29.48" fill="#25b774"/>
      <path d="M98.86,262a118.24,118.24,0,0,1,27.07,12.34,212.3,212.3,0,0,1-28.53-6.79,220.78,220.78,0,0,1-27-10.45A114.06,114.06,0,0,1,98.86,262" fill="#068e4d"/>
      <path d="M130.27,244.29a236.56,236.56,0,0,0-4.34,30.1,116.94,116.94,0,0,0,10-28.16,127.42,127.42,0,0,0,2.71-31.1,214.43,214.43,0,0,0-8.36,29.16" fill="#068e4d"/>
      <path d="M108.9,280.69a118.21,118.21,0,0,1,26.54,13.47,213.62,213.62,0,0,1-28.23-8,221.65,221.65,0,0,1-26.55-11.57,113.82,113.82,0,0,1,28.24,6.08" fill="#068e4d"/>
      <path d="M141,264.26a236.09,236.09,0,0,0-5.58,29.9,117.46,117.46,0,0,0,11.15-27.73,127.2,127.2,0,0,0,4-31A214.24,214.24,0,0,0,141,264.26" fill="#068e4d"/>
      <path d="M92.62,217.67A529.26,529.26,0,0,1,149.48,328" fill="none" stroke="#36e69a" stroke-linecap="round" stroke-linejoin="round" stroke-width="2"/>
      <animate begin="toWindowAnimation.end - 0.05s" attributeName="opacity" values="0; 0; 1;" keyTimes="0; 0.5; 1" dur="0.4s" fill="freeze" />

      <animateTransform id="showPlantAnimation" begin="showChairAnimation.begin + 0.03" attributeName="transform" type="translate" values="-100; 0;" keyTimes="0; 1" dur="0.4s" />
      <animateTransform begin="showPlantAnimation.end - 0.05s" attributeName="transform" type="rotate" values="-2 150 330; 0 150 330; 2 150 330; 0 150 330; -1 150 330; 0 150 330" keyTimes="0; 0.2; 0.4; 0.6; 0.8; 1" dur="0.6s" additive="sum" />
    </g>
  </g>

  <g id="mount">
    <path d="M 289.94 327.88 L 244.88 327.88 L 212.8 296.58 C 212.459 296.292 212.027 296.134 211.58 296.134 C 211.133 296.134 210.701 296.292 210.36 296.58 L 200.16 306.81 C 199.848 307.08 199.448 307.229 199.035 307.229 C 198.622 307.229 198.222 307.08 197.91 306.81 L 178.91 286.64 C 178.477 286.274 177.927 286.072 177.36 286.072 C 176.793 286.072 176.243 286.274 175.81 286.64 L 149.39 312.28 C 149.079 312.552 148.679 312.702 148.265 312.702 C 147.851 312.702 147.451 312.552 147.14 312.28 L 144.51 309.36 C 144.195 309.071 143.782 308.911 143.355 308.911 C 142.928 308.911 142.515 309.071 142.2 309.36 L 124.63 329 L 80.78 329" fill="none" stroke="#fff" stroke-linecap="round" stroke-miterlimit="10" stroke-width="2">
      <animate attributeName="d" dur="0.25s" fill="freeze" begin="fromWindowAnimation.end" to="M 289.94 328 L 246.004 328 L 218.033 328 C 217.077 328 216.12 328 215.164 328 C 214.447 328 213.73 328 213.012 328 L 202.971 328 C 202.254 328 201.537 328 200.82 328 C 200.342 328 199.863 328 199.385 328 L 181.455 328 C 179.542 328 177.63 328 175.717 328 C 174.761 328 173.805 328 172.848 328 L 149.18 328 C 148.941 328 148.702 328 148.463 328 C 147.507 328 146.551 328 145.594 328 L 140.574 328 C 140.096 328 139.617 328 139.139 328 C 138.661 328 138.183 328 137.705 328 L 126.23 328 L 81.002 328" />
    </path>
  </g>
</svg>
